<svg id="Gradient" enable-background="new 0 0 64 64" height="512" viewBox="0 0 64 64" width="512" xmlns="http://www.w3.org/2000/svg" xmlns:xlink="http://www.w3.org/1999/xlink"><linearGradient id="lg1"><stop offset="0" stop-color="#00a5e9"/><stop offset="1" stop-color="#15ffce"/></linearGradient><linearGradient id="SVGID_1_" gradientUnits="userSpaceOnUse" x1="16.905" x2="16.905" xlink:href="#lg1" y1="60" y2="4"/><linearGradient id="SVGID_2_" gradientUnits="userSpaceOnUse" x1="47.094" x2="47.094" xlink:href="#lg1" y1="60" y2="4"/><linearGradient id="SVGID_3_" gradientUnits="userSpaceOnUse" x1="32.016" x2="32.016" xlink:href="#lg1" y1="60" y2="4"/><linearGradient id="SVGID_4_" gradientUnits="userSpaceOnUse" x1="32" x2="32" xlink:href="#lg1" y1="60" y2="4"/><path d="m8.913 45.451c.095.027.191.041.285.041.432 0 .829-.279.958-.715 1.985-6.67 10.043-9.363 14.67-10.377.539-.117.881-.65.763-1.189-.118-.541-.653-.881-1.19-.764-5.057 1.107-13.881 4.105-16.158 11.76-.159.529.143 1.086.672 1.244z" fill="url(#SVGID_1_)"/><path d="m39.17 34.4c4.632 1.021 12.696 3.729 14.672 10.377.13.436.527.715.959.715.094 0 .189-.014.285-.041.529-.158.831-.715.674-1.244-2.269-7.631-11.098-10.643-16.158-11.76-.548-.119-1.073.223-1.192.762s.221 1.072.76 1.191z" fill="url(#SVGID_2_)"/><path d="m32.051 37.328c.783 0 1.568-.08 2.332-.236 5.476-1.119 9.45-5.996 9.45-11.592 0-4.949-3.121-9.414-7.766-11.115-1.281-.469-2.632-.707-4.012-.707-3.533 0-6.968 1.605-9.188 4.295-3.151 3.816-3.558 9.436-.988 13.664 2.134 3.509 6.031 5.691 10.172 5.691zm-7.64-18.082c1.844-2.234 4.702-3.568 7.645-3.568 1.145 0 2.264.197 3.324.586 3.8 1.391 6.453 5.188 6.453 9.236 0 4.576-3.375 8.717-7.851 9.633-.633.129-1.282.195-1.932.195-3.446 0-6.689-1.813-8.462-4.73-2.133-3.512-1.795-8.18.823-11.352z" fill="url(#SVGID_3_)"/><path d="m16.538 54.137c4.459 3.121 9.969 4.838 15.514 4.838h.002c3.851 0 7.705-.83 11.146-2.4 8.439-3.854 14.409-11.947 15.58-21.123.146-1.141.219-2.301.219-3.451 0-9.326-4.944-18.152-12.904-23.033-4.204-2.578-9.084-3.941-14.114-3.941-4.438 0-8.814 1.082-12.656 3.129-8.213 4.371-13.681 12.842-14.271 22.104-.595 9.355 3.805 18.506 11.484 23.877zm-9.488-23.75c.546-8.574 5.609-16.418 13.214-20.467 3.554-1.893 7.605-2.895 11.717-2.895 4.661 0 9.18 1.262 13.069 3.646 7.37 4.52 11.949 12.694 11.949 21.329 0 1.066-.068 2.141-.203 3.197-1.084 8.496-6.611 15.988-14.426 19.557-3.184 1.453-6.751 2.221-10.316 2.221-.001 0-.001 0-.001 0-5.14 0-10.242-1.59-14.368-4.477-7.111-4.975-11.186-13.447-10.635-22.111z" fill="url(#SVGID_4_)"/></svg>